<svg width="1213" height="573" viewBox="0 0 1213 573" fill="none" xmlns="http://www.w3.org/2000/svg">
<path d="M55.6454 45.8518C55.6454 54.4122 47.0195 59.5652 35.1454 59.5652C23.2713 59.5652 20.1454 61.6256 20.1454 53.0652C20.1454 44.5048 29.7713 37.5652 41.6454 37.5652C53.5195 37.5652 55.6454 37.2914 55.6454 45.8518Z" fill="#443939"/>
<path d="M369.606 211.945C372.537 219.988 366.197 227.783 355.041 231.848C343.885 235.914 341.653 238.92 338.722 230.877C335.791 222.834 342.459 213.018 353.615 208.953C364.772 204.887 366.675 203.902 369.606 211.945Z" fill="#443939"/>
<path d="M766.647 234.483C763.998 242.623 754.201 244.854 742.91 241.18C731.619 237.505 728.009 238.498 730.658 230.357C733.306 222.217 744.607 218.597 755.899 222.271C767.19 225.945 769.296 226.342 766.647 234.483Z" fill="#443939"/>
<path d="M120.9 128.297C126.294 134.944 122.843 144.381 113.623 151.864C104.403 159.346 103.275 162.916 97.8803 156.269C92.486 149.622 95.5873 138.168 104.807 130.685C114.027 123.203 115.505 121.65 120.9 128.297Z" fill="#443939"/>
<path d="M284.265 113.99C278.733 120.523 268.82 118.882 259.758 111.209C250.696 103.536 246.979 103.088 252.511 96.5551C258.043 90.0221 269.873 90.9462 278.935 98.6192C287.997 106.292 289.797 107.457 284.265 113.99Z" fill="#443939"/>
<path d="M999.62 8.09286C1001.47 16.4521 994.152 23.343 982.557 25.9019C970.962 28.4609 968.354 31.1465 966.509 22.7873C964.664 14.428 972.568 5.57703 984.163 3.01807C995.758 0.459108 997.775 -0.266406 999.62 8.09286Z" fill="#443939"/>
<path d="M989.828 130.873C987.923 139.219 978.367 142.323 966.79 139.68C955.214 137.037 951.708 138.35 953.613 130.005C955.518 121.659 966.447 117.036 978.024 119.678C989.6 122.321 991.733 122.527 989.828 130.873Z" fill="#443939"/>
<path d="M654.9 127.331C648.649 134.659 638.231 133.393 629.07 125.578C619.909 117.763 615.993 117.469 622.244 110.141C628.496 102.813 640.99 103.208 650.15 111.023C659.311 118.838 661.151 120.003 654.9 127.331Z" fill="#443939"/>
<path d="M907.019 100.008C901.736 108.062 891.445 108.245 881.656 101.824C871.868 95.4027 868.019 95.6508 873.302 87.597C878.586 79.5432 890.804 78.2199 900.593 84.6413C910.381 91.0627 912.303 91.9547 907.019 100.008Z" fill="#443939"/>
<path d="M1210.33 188.96C1207.61 198.2 1197.81 201.361 1186.58 198.055C1175.35 194.749 1171.74 196.103 1174.46 186.863C1177.18 177.623 1188.49 172.812 1199.72 176.118C1210.95 179.424 1213.05 179.72 1210.33 188.96Z" fill="#443939"/>
<path d="M1191.83 45.6C1194.18 54.9419 1187.1 62.6962 1175.43 65.6295C1163.75 68.5629 1161.24 71.5836 1158.89 62.2417C1156.55 52.8999 1164.11 42.9488 1175.79 40.0154C1187.47 37.0821 1189.48 36.2581 1191.83 45.6Z" fill="#443939"/>
</svg>
