<svg width="1196" height="778" viewBox="0 0 1196 778" fill="none" xmlns="http://www.w3.org/2000/svg">
<path d="M1178.78 123.925C1170.78 120.885 1169.02 110.991 1173.24 99.8909C1177.45 88.7907 1176.64 85.1368 1184.64 88.1766C1192.64 91.2163 1195.71 102.679 1191.5 113.779C1187.28 124.88 1186.78 126.964 1178.78 123.925Z" fill="#443939"/>
<path d="M1073.26 53.4946C1075.38 45.1998 1085.01 42.3387 1096.51 45.2736C1108.02 48.2085 1111.56 46.9846 1109.44 55.2794C1107.32 63.5742 1096.28 67.9193 1084.78 64.9844C1073.27 62.0496 1071.14 61.7894 1073.26 53.4946Z" fill="#443939"/>
<path d="M887.916 596.316C881.04 591.217 882.038 581.219 889.11 571.681C896.182 562.142 896.389 558.404 903.265 563.503C910.142 568.601 909.983 580.466 902.911 590.005C895.839 599.543 894.793 601.414 887.916 596.316Z" fill="#443939"/>
<path d="M1141.57 529.14C1133.4 526.564 1131.09 516.787 1134.66 505.463C1138.23 494.14 1137.21 490.539 1145.37 493.115C1153.54 495.692 1157.26 506.96 1153.68 518.283C1150.11 529.607 1149.73 531.717 1141.57 529.14Z" fill="#443939"/>
<path d="M1013.1 631.065C1014.12 622.565 1023.3 618.475 1035.09 619.888C1046.87 621.3 1050.22 619.626 1049.21 628.126C1048.19 636.626 1037.8 642.371 1026.01 640.958C1014.22 639.545 1012.08 639.564 1013.1 631.065Z" fill="#443939"/>
</svg>
