<svg width="20" height="20" viewBox="0 0 20 20" fill="none" xmlns="http://www.w3.org/2000/svg">
<path d="M9.07416 0.632972C9.39415 -0.210991 10.6051 -0.210991 10.9261 0.632972L12.996 6.36672C13.141 6.7467 13.51 6.99969 13.9219 6.99969H19.0087C19.9487 6.99969 20.3587 8.16964 19.6197 8.74261L15.9999 11.9995C15.8377 12.1241 15.7192 12.2969 15.6614 12.4931C15.6035 12.6893 15.6093 12.8987 15.6779 13.0914L16.9998 18.6942C17.3218 19.5941 16.2798 20.3671 15.4919 19.8131L10.5751 16.6933C10.4067 16.5749 10.2059 16.5114 10.0001 16.5114C9.79432 16.5114 9.59353 16.5749 9.42515 16.6933L4.50837 19.8131C3.7214 20.3671 2.67845 19.5931 3.00043 18.6942L4.32237 13.0914C4.39095 12.8987 4.39673 12.6893 4.33888 12.4931C4.28104 12.2969 4.16254 12.1241 4.00039 11.9995L0.380548 8.74261C-0.359419 8.16964 0.0525625 6.99969 0.990521 6.99969H6.0773C6.27758 7.00036 6.47334 6.9402 6.63869 6.82717C6.80403 6.71414 6.93116 6.55358 7.00325 6.36672L9.07316 0.632972H9.07416Z" fill="#FFDD2D"/>
</svg>
